<?xml version="1.0" encoding="utf-8"?>
<!-- Generator: Adobe Illustrator 24.1.0, SVG Export Plug-In . SVG Version: 6.00 Build 0)  -->
<svg version="1.1" id="upcCode" xmlns="http://www.w3.org/2000/svg" xmlns:xlink="http://www.w3.org/1999/xlink" x="0px" y="0px"
	 viewBox="0 0 210 101.5" style="enable-background:new 0 0 210 101.5;" xml:space="preserve">
<style type="text/css">
	.st0{fill:#FFFFFF;}
	.st1{enable-background:new    ;}
</style>
<g transform="translate(0)">
	<rect class="st0" width="2" height="100"/>
</g>
<g transform="translate(2)">
	<polygon class="st0" points="0,0 2,0 2,0 	"/>
</g>
<g transform="translate(4)">
	<rect class="st0" width="2" height="100"/>
</g>
<g transform="translate(6)">
	<polygon class="st0" points="0,0 2,0 2,0 	"/>
</g>
<g transform="translate(8)">
	<rect class="st0" width="2" height="80"/>
</g>
<g transform="translate(10)">
	<polygon class="st0" points="0,0 2,0 2,0 	"/>
</g>
<g transform="translate(12)">
	<rect class="st0" width="2" height="80"/>
</g>
<g transform="translate(14)">
	<rect class="st0" width="2" height="80"/>
</g>
<g transform="translate(16)">
	<rect class="st0" width="2" height="80"/>
</g>
<g transform="translate(18)">
	<rect class="st0" width="2" height="80"/>
</g>
<g transform="translate(20)">
	<polygon class="st0" points="0,0 2,0 2,0 	"/>
</g>
<g transform="translate(22)">
	<rect x="-5" class="st0" width="2" height="80"/>
</g>
<g transform="translate(24)">
	<rect class="st0" width="2" height="80"/>
</g>
<g transform="translate(26)">
	<polygon class="st0" points="0,0 2,0 2,0 	"/>
</g>
<g transform="translate(28)">
	<polygon class="st0" points="0,0 2,0 2,0 	"/>
</g>
<g transform="translate(30)">
	<polygon class="st0" points="0,0 2,0 2,0 	"/>
</g>
<g transform="translate(32)">
	<rect class="st0" width="2" height="80"/>
</g>
<g transform="translate(34)">
	<polygon class="st0" points="0,0 2,0 2,0 	"/>
</g>
<g transform="translate(36)">
	<polygon class="st0" points="0,0 2,0 2,0 	"/>
</g>
<g transform="translate(38)">
	<rect class="st0" width="2" height="80"/>
</g>
<g transform="translate(40)">
	<polygon class="st0" points="0,0 2,0 2,0 	"/>
</g>
<g transform="translate(42)">
	<polygon class="st0" points="0,0 2,0 2,0 	"/>
</g>
<g transform="translate(44)">
	<rect class="st0" width="2" height="80"/>
</g>
<g transform="translate(46)">
	<rect class="st0" width="2" height="80"/>
</g>
<g transform="translate(48)">
	<polygon class="st0" points="0,0 2,0 2,0 	"/>
</g>
<g transform="translate(50)">
	<rect class="st0" width="2" height="80"/>
</g>
<g transform="translate(52)">
	<rect class="st0" width="2" height="80"/>
</g>
<g transform="translate(54)">
	<polygon class="st0" points="0,0 2,0 2,0 	"/>
</g>
<g transform="translate(56)">
	<rect class="st0" width="2" height="80"/>
</g>
<g transform="translate(58)">
	<rect class="st0" width="2" height="80"/>
</g>
<g transform="translate(60)">
	<rect class="st0" width="2" height="80"/>
</g>
<g transform="translate(62)">
	<polygon class="st0" points="0,0 2,0 2,0 	"/>
</g>
<g transform="translate(64)">
	<polygon class="st0" points="0,0 2,0 2,0 	"/>
</g>
<g transform="translate(66)">
	<rect class="st0" width="2" height="80"/>
</g>
<g transform="translate(68)">
	<rect class="st0" width="2" height="80"/>
</g>
<g transform="translate(70)">
	<polygon class="st0" points="0,0 2,0 2,0 	"/>
</g>
<g transform="translate(72)">
	<polygon class="st0" points="0,0 2,0 2,0 	"/>
</g>
<g transform="translate(74)">
	<rect class="st0" width="2" height="80"/>
</g>
<g transform="translate(76)">
	<polygon class="st0" points="0,0 2,0 2,0 	"/>
</g>
<g transform="translate(78)">
	<polygon class="st0" points="0,0 2,0 2,0 	"/>
</g>
<g transform="translate(80)">
	<polygon class="st0" points="0,0 2,0 2,0 	"/>
</g>
<g transform="translate(82)">
	<rect class="st0" width="2" height="80"/>
</g>
<g transform="translate(84)">
	<rect x="7" class="st0" width="2" height="80"/>
</g>
<g transform="translate(86)">
	<polygon class="st0" points="0,0 2,0 2,0 	"/>
</g>
<g transform="translate(88)">
	<rect class="st0" width="2" height="80"/>
</g>
<g transform="translate(90)">
	<polygon class="st0" points="0,0 2,0 2,0 	"/>
</g>
<g transform="translate(92)">
	<rect x="-13" class="st0" width="2" height="100"/>
</g>
<g transform="translate(94)">
	<polygon class="st0" points="0,0 2,0 2,0 	"/>
</g>
<g transform="translate(96)">
	<rect x="-14" class="st0" width="2" height="100"/>
</g>
<g transform="translate(98)">
	<polygon class="st0" points="0,0 2,0 2,0 	"/>
</g>
<g transform="translate(100)">
	<rect class="st0" width="2" height="80"/>
</g>
<g transform="translate(102)">
	<rect x="-6" class="st0" width="2" height="80"/>
</g>
<g transform="translate(104)">
	<polygon class="st0" points="0,0 2,0 2,0 	"/>
</g>
<g transform="translate(106)">
	<polygon class="st0" points="0,0 2,0 2,0 	"/>
</g>
<g transform="translate(108)">
	<rect class="st0" width="2" height="80"/>
</g>
<g transform="translate(110)">
	<rect class="st0" width="2" height="80"/>
</g>
<g transform="translate(112)">
	<polygon class="st0" points="0,0 2,0 2,0 	"/>
</g>
<g transform="translate(114)">
	<rect class="st0" width="2" height="80"/>
</g>
<g transform="translate(116)">
	<rect class="st0" width="2" height="80"/>
</g>
<g transform="translate(118)">
	<polygon class="st0" points="0,0 2,0 2,0 	"/>
</g>
<g transform="translate(120)">
	<polygon class="st0" points="0,0 2,0 2,0 	"/>
</g>
<g transform="translate(122)">
	<rect class="st0" width="2" height="80"/>
</g>
<g transform="translate(124)">
	<rect class="st0" width="2" height="80"/>
</g>
<g transform="translate(126)">
	<polygon class="st0" points="0,0 2,0 2,0 	"/>
</g>
<g transform="translate(128)">
	<rect class="st0" width="2" height="80"/>
</g>
<g transform="translate(130)">
	<rect class="st0" width="2" height="80"/>
</g>
<g transform="translate(132)">
	<rect x="63.8" class="st0" width="2" height="80"/>
</g>
<g transform="translate(134)">
	<polygon class="st0" points="0,0 2,0 2,0 	"/>
</g>
<g transform="translate(136)">
	<rect class="st0" width="2" height="80"/>
</g>
<g transform="translate(138)">
	<polygon class="st0" points="0,0 2,0 2,0 	"/>
</g>
<g transform="translate(140)">
	<polygon class="st0" points="0,0 2,0 2,0 	"/>
</g>
<g transform="translate(142)">
	<rect class="st0" width="2" height="80"/>
</g>
<g transform="translate(144)">
	<polygon class="st0" points="0,0 2,0 2,0 	"/>
</g>
<g transform="translate(146)">
	<polygon class="st0" points="0,0 2,0 2,0 	"/>
</g>
<g transform="translate(148)">
	<polygon class="st0" points="0,0 2,0 2,0 	"/>
</g>
<g transform="translate(150)">
	<polygon class="st0" points="0,0 2,0 2,0 	"/>
</g>
<g transform="translate(152)">
	<rect class="st0" width="2" height="80"/>
</g>
<g transform="translate(154)">
	<polygon class="st0" points="0,0 2,0 2,0 	"/>
</g>
<g transform="translate(156)">
	<rect class="st0" width="2" height="80"/>
</g>
<g transform="translate(158)">
	<polygon class="st0" points="0,0 2,0 2,0 	"/>
</g>
<g transform="translate(160)">
	<polygon class="st0" points="0,0 2,0 2,0 	"/>
</g>
<g transform="translate(162)">
	<polygon class="st0" points="0,0 2,0 2,0 	"/>
</g>
<g transform="translate(164)">
	<polygon class="st0" points="0,0 2,0 2,0 	"/>
</g>
<g transform="translate(166)">
	<rect class="st0" width="2" height="80"/>
</g>
<g transform="translate(168)">
	<polygon class="st0" points="0,0 2,0 2,0 	"/>
</g>
<g transform="translate(170)">
	<rect class="st0" width="2" height="80"/>
</g>
<g transform="translate(172)">
	<polygon class="st0" points="0,0 2,0 2,0 	"/>
</g>
<g transform="translate(174)">
	<polygon class="st0" points="0,0 2,0 2,0 	"/>
</g>
<g transform="translate(176)">
	<polygon class="st0" points="0,0 2,0 2,0 	"/>
</g>
<g transform="translate(178)">
	<rect class="st0" width="2" height="80"/>
</g>
<g transform="translate(180)">
	<polygon class="st0" points="0,0 2,0 2,0 	"/>
</g>
<g transform="translate(182)">
	<polygon class="st0" points="0,0 2,0 2,0 	"/>
</g>
<g transform="translate(184)">
	<rect x="21.8" class="st0" width="2" height="100"/>
</g>
<g transform="translate(186)">
	<polygon class="st0" points="0,0 2,0 2,0 	"/>
</g>
<g transform="translate(188)">
	<rect x="15.3" class="st0" width="2" height="100"/>
</g>
<g class="st1">
	<path class="st0" d="M11.5,83.4V82h9.7v1.4h-4.1V100h-1.6V83.4H11.5z"/>
	<path class="st0" d="M23.6,100V82h1.6v18H23.6z"/>
	<path class="st0" d="M28.6,100V82h8.2v1.4h-6.6v6.5h6v1.4h-6v7.3h6.7v1.4H28.6z"/>
	<path class="st0" d="M47.8,97.5L47.8,97.5l0-15.5h1.6v18h-1.9l-6.7-15.4h0V100h-1.6V82h1.9L47.8,97.5z"/>
	<path class="st0" d="M52.7,82h3.2c2,0,3.9,0.1,5.3,1.7c1.2,1.4,1.7,4.1,1.7,5.9c0,2,0,4.8-0.7,6.7c-1.1,3.1-3,3.7-6,3.7h-3.5V82z
		 M54.3,98.6h1.9c0.9,0,1.9,0,2.8-0.4c2.4-1.1,2.5-5.1,2.5-7.2c0-2.3,0-5.9-2.3-7.2c-0.9-0.5-2.4-0.5-3.5-0.4h-1.3V98.6z"/>
	<path class="st0" d="M71.2,82l4.8,18h-1.6l-1.4-5.5h-5.5l-1.5,5.5h-1.5l4.8-18H71.2z M72.7,93.1L70.4,84h0l-2.4,9.1H72.7z"/>
</g>
<g class="st1">
	<path class="st0" d="M85.5,83.4V82h9.7v1.4h-4.1V100h-1.6V83.4H85.5z"/>
	<path class="st0" d="M97.1,85.4c2.4-0.1,3.8-0.6,4.1-3.3h1.3V100h-1.6V86.3c-0.6,0.1-1.2,0.1-1.8,0.2c-0.7,0-1.3,0.1-2,0.1V85.4z"
		/>
	<path class="st0" d="M109.9,91.5v-1.3h0.5c2.4,0,3.6-1.2,3.6-3.6c0-1.6-0.6-3.2-2.5-3.2c-2,0-2.4,1.9-2.6,3.5h-1.4
		c0-2.4,1.1-4.8,3.9-4.8c2.8,0,4.2,2,4.2,4.6c0,0.7-0.2,3-2.6,4v0c2.5,0.6,3.1,2.7,3.1,4.5c0,4.9-3.7,5-4.5,5c-0.3,0-4.5,0.2-4.4-5
		h1.5c0,1.9,0.6,3.7,2.9,3.7c2.2,0,3-1.9,3-3.8c0-1.3-0.5-3.6-3.5-3.7H109.9z"/>
	<path class="st0" d="M127.1,97.5L127.1,97.5l0-15.5h1.6v18h-1.9l-6.7-15.4h0V100h-1.6V82h1.9L127.1,97.5z"/>
	<path class="st0" d="M132,82h3.2c2,0,3.9,0.1,5.3,1.7c1.2,1.4,1.7,4.1,1.7,5.9c0,2,0,4.8-0.7,6.7c-1.1,3.1-3,3.7-6,3.7H132V82z
		 M133.6,98.6h1.9c0.9,0,1.9,0,2.8-0.4c2.4-1.1,2.5-5.1,2.5-7.2c0-2.3,0-5.9-2.3-7.2c-0.9-0.5-2.4-0.5-3.5-0.4h-1.3V98.6z"/>
	<path class="st0" d="M150.5,82.1h1.5v11.8h1.6v1.3H152v4.8h-1.6v-4.8h-6.1v-1.4L150.5,82.1z M150.4,93.9v-9h0l-4.6,9H150.4z"/>
	<path class="st0" d="M165,82.1c4.7,0,4.4,6.8,4.4,9.4c0,4.3-0.4,8.8-4.5,8.8c-3.9,0-4.4-4.3-4.4-9.2
		C160.5,83.5,162.6,82.1,165,82.1z M164.9,99c1,0,3,0,3-7.6c0-4.6-0.2-8-3-8c-2,0-2.7,2-2.7,8.1C162.1,97.1,162.9,99,164.9,99z"/>
	<path class="st0" d="M175.7,82.1c4.7,0,4.4,6.8,4.4,9.4c0,4.3-0.4,8.8-4.5,8.8c-3.9,0-4.4-4.3-4.4-9.2
		C171.2,83.5,173.3,82.1,175.7,82.1z M175.5,99c1,0,3,0,3-7.6c0-4.6-0.2-8-3-8c-2,0-2.7,2-2.7,8.1C172.7,97.1,173.5,99,175.5,99z"/>
	<path class="st0" d="M186.3,82.1c4.7,0,4.4,6.8,4.4,9.4c0,4.3-0.4,8.8-4.5,8.8c-3.9,0-4.4-4.3-4.4-9.2
		C181.8,83.5,183.9,82.1,186.3,82.1z M186.2,99c1,0,3,0,3-7.6c0-4.6-0.2-8-3-8c-2,0-2.7,2-2.7,8.1C183.4,97.1,184.2,99,186.2,99z"/>
	<path class="st0" d="M197,82.1c4.7,0,4.4,6.8,4.4,9.4c0,4.3-0.4,8.8-4.5,8.8c-3.9,0-4.4-4.3-4.4-9.2
		C192.5,83.5,194.6,82.1,197,82.1z M196.8,99c1,0,3,0,3-7.6c0-4.6-0.2-8-3-8c-2,0-2.7,2-2.7,8.1C194.1,97.1,194.8,99,196.8,99z"/>
</g>
<g transform="translate(110)">
	<rect x="56" class="st0" width="2" height="80"/>
</g>
<g transform="translate(114)">
	<rect x="56" class="st0" width="2" height="80"/>
</g>
<g transform="translate(116)">
	<rect x="56" class="st0" width="2" height="80"/>
</g>
<g transform="translate(122)">
	<rect x="56" class="st0" width="2" height="80"/>
</g>
<g transform="translate(124)">
	<rect x="56" class="st0" width="2" height="80"/>
</g>
<g transform="translate(128)">
	<rect x="56" class="st0" width="2" height="80"/>
</g>
<g transform="translate(130)">
	<rect x="56" class="st0" width="2" height="80"/>
</g>
<g transform="translate(132)">
	<rect x="56" class="st0" width="2" height="80"/>
</g>
<g transform="translate(136)">
	<rect x="56" class="st0" width="2" height="80"/>
</g>
<g transform="translate(128)">
	<rect x="32" class="st0" width="2" height="80"/>
</g>
<g transform="translate(130)">
	<rect x="32" class="st0" width="2" height="80"/>
</g>
<g transform="translate(128)">
	<rect x="17" class="st0" width="2" height="80"/>
</g>
<g transform="translate(130)">
	<rect x="17" class="st0" width="2" height="80"/>
</g>
</svg>
