<?xml version="1.0" encoding="utf-8"?>
<!-- Generator: Adobe Illustrator 24.1.0, SVG Export Plug-In . SVG Version: 6.00 Build 0)  -->
<svg version="1.1" id="upcCode" xmlns="http://www.w3.org/2000/svg" xmlns:xlink="http://www.w3.org/1999/xlink" x="0px" y="0px"
	 viewBox="0 0 210 101.5" style="enable-background:new 0 0 210 101.5;" xml:space="preserve">
<style type="text/css">
	.st0{enable-background:new    ;}
</style>
<g transform="translate(0)">
	<rect width="2" height="100"/>
</g>
<g transform="translate(2)">
	<polygon points="0,0 2,0 2,0 	"/>
</g>
<g transform="translate(4)">
	<rect width="2" height="100"/>
</g>
<g transform="translate(6)">
	<polygon points="0,0 2,0 2,0 	"/>
</g>
<g transform="translate(8)">
	<rect width="2" height="80"/>
</g>
<g transform="translate(10)">
	<polygon points="0,0 2,0 2,0 	"/>
</g>
<g transform="translate(12)">
	<rect width="2" height="80"/>
</g>
<g transform="translate(14)">
	<rect width="2" height="80"/>
</g>
<g transform="translate(16)">
	<rect width="2" height="80"/>
</g>
<g transform="translate(18)">
	<rect width="2" height="80"/>
</g>
<g transform="translate(20)">
	<polygon points="0,0 2,0 2,0 	"/>
</g>
<g transform="translate(22)">
	<rect x="-5" width="2" height="80"/>
</g>
<g transform="translate(24)">
	<rect width="2" height="80"/>
</g>
<g transform="translate(26)">
	<polygon points="0,0 2,0 2,0 	"/>
</g>
<g transform="translate(28)">
	<polygon points="0,0 2,0 2,0 	"/>
</g>
<g transform="translate(30)">
	<polygon points="0,0 2,0 2,0 	"/>
</g>
<g transform="translate(32)">
	<rect width="2" height="80"/>
</g>
<g transform="translate(34)">
	<polygon points="0,0 2,0 2,0 	"/>
</g>
<g transform="translate(36)">
	<polygon points="0,0 2,0 2,0 	"/>
</g>
<g transform="translate(38)">
	<rect width="2" height="80"/>
</g>
<g transform="translate(40)">
	<polygon points="0,0 2,0 2,0 	"/>
</g>
<g transform="translate(42)">
	<polygon points="0,0 2,0 2,0 	"/>
</g>
<g transform="translate(44)">
	<rect width="2" height="80"/>
</g>
<g transform="translate(46)">
	<rect width="2" height="80"/>
</g>
<g transform="translate(48)">
	<polygon points="0,0 2,0 2,0 	"/>
</g>
<g transform="translate(50)">
	<rect width="2" height="80"/>
</g>
<g transform="translate(52)">
	<rect width="2" height="80"/>
</g>
<g transform="translate(54)">
	<polygon points="0,0 2,0 2,0 	"/>
</g>
<g transform="translate(56)">
	<rect width="2" height="80"/>
</g>
<g transform="translate(58)">
	<rect width="2" height="80"/>
</g>
<g transform="translate(60)">
	<rect width="2" height="80"/>
</g>
<g transform="translate(62)">
	<polygon points="0,0 2,0 2,0 	"/>
</g>
<g transform="translate(64)">
	<polygon points="0,0 2,0 2,0 	"/>
</g>
<g transform="translate(66)">
	<rect width="2" height="80"/>
</g>
<g transform="translate(68)">
	<rect width="2" height="80"/>
</g>
<g transform="translate(70)">
	<polygon points="0,0 2,0 2,0 	"/>
</g>
<g transform="translate(72)">
	<polygon points="0,0 2,0 2,0 	"/>
</g>
<g transform="translate(74)">
	<rect width="2" height="80"/>
</g>
<g transform="translate(76)">
	<polygon points="0,0 2,0 2,0 	"/>
</g>
<g transform="translate(78)">
	<polygon points="0,0 2,0 2,0 	"/>
</g>
<g transform="translate(80)">
	<polygon points="0,0 2,0 2,0 	"/>
</g>
<g transform="translate(82)">
	<rect width="2" height="80"/>
</g>
<g transform="translate(84)">
	<rect x="7" width="2" height="80"/>
</g>
<g transform="translate(86)">
	<polygon points="0,0 2,0 2,0 	"/>
</g>
<g transform="translate(88)">
	<rect width="2" height="80"/>
</g>
<g transform="translate(90)">
	<polygon points="0,0 2,0 2,0 	"/>
</g>
<g transform="translate(92)">
	<rect x="-13" width="2" height="100"/>
</g>
<g transform="translate(94)">
	<polygon points="0,0 2,0 2,0 	"/>
</g>
<g transform="translate(96)">
	<rect x="-14" width="2" height="100"/>
</g>
<g transform="translate(98)">
	<polygon points="0,0 2,0 2,0 	"/>
</g>
<g transform="translate(100)">
	<rect width="2" height="80"/>
</g>
<g transform="translate(102)">
	<rect x="-6" width="2" height="80"/>
</g>
<g transform="translate(104)">
	<polygon points="0,0 2,0 2,0 	"/>
</g>
<g transform="translate(106)">
	<polygon points="0,0 2,0 2,0 	"/>
</g>
<g transform="translate(108)">
	<rect width="2" height="80"/>
</g>
<g transform="translate(110)">
	<rect width="2" height="80"/>
</g>
<g transform="translate(112)">
	<polygon points="0,0 2,0 2,0 	"/>
</g>
<g transform="translate(114)">
	<rect width="2" height="80"/>
</g>
<g transform="translate(116)">
	<rect width="2" height="80"/>
</g>
<g transform="translate(118)">
	<polygon points="0,0 2,0 2,0 	"/>
</g>
<g transform="translate(120)">
	<polygon points="0,0 2,0 2,0 	"/>
</g>
<g transform="translate(122)">
	<rect width="2" height="80"/>
</g>
<g transform="translate(124)">
	<rect width="2" height="80"/>
</g>
<g transform="translate(126)">
	<polygon points="0,0 2,0 2,0 	"/>
</g>
<g transform="translate(128)">
	<rect width="2" height="80"/>
</g>
<g transform="translate(130)">
	<rect width="2" height="80"/>
</g>
<g transform="translate(132)">
	<rect x="63.8" width="2" height="80"/>
</g>
<g transform="translate(134)">
	<polygon points="0,0 2,0 2,0 	"/>
</g>
<g transform="translate(136)">
	<rect width="2" height="80"/>
</g>
<g transform="translate(138)">
	<polygon points="0,0 2,0 2,0 	"/>
</g>
<g transform="translate(140)">
	<polygon points="0,0 2,0 2,0 	"/>
</g>
<g transform="translate(142)">
	<rect width="2" height="80"/>
</g>
<g transform="translate(144)">
	<polygon points="0,0 2,0 2,0 	"/>
</g>
<g transform="translate(146)">
	<polygon points="0,0 2,0 2,0 	"/>
</g>
<g transform="translate(148)">
	<polygon points="0,0 2,0 2,0 	"/>
</g>
<g transform="translate(150)">
	<polygon points="0,0 2,0 2,0 	"/>
</g>
<g transform="translate(152)">
	<rect width="2" height="80"/>
</g>
<g transform="translate(154)">
	<polygon points="0,0 2,0 2,0 	"/>
</g>
<g transform="translate(156)">
	<rect width="2" height="80"/>
</g>
<g transform="translate(158)">
	<polygon points="0,0 2,0 2,0 	"/>
</g>
<g transform="translate(160)">
	<polygon points="0,0 2,0 2,0 	"/>
</g>
<g transform="translate(162)">
	<polygon points="0,0 2,0 2,0 	"/>
</g>
<g transform="translate(164)">
	<polygon points="0,0 2,0 2,0 	"/>
</g>
<g transform="translate(166)">
	<rect width="2" height="80"/>
</g>
<g transform="translate(168)">
	<polygon points="0,0 2,0 2,0 	"/>
</g>
<g transform="translate(170)">
	<rect width="2" height="80"/>
</g>
<g transform="translate(172)">
	<polygon points="0,0 2,0 2,0 	"/>
</g>
<g transform="translate(174)">
	<polygon points="0,0 2,0 2,0 	"/>
</g>
<g transform="translate(176)">
	<polygon points="0,0 2,0 2,0 	"/>
</g>
<g transform="translate(178)">
	<rect width="2" height="80"/>
</g>
<g transform="translate(180)">
	<polygon points="0,0 2,0 2,0 	"/>
</g>
<g transform="translate(182)">
	<polygon points="0,0 2,0 2,0 	"/>
</g>
<g transform="translate(184)">
	<rect x="21.8" width="2" height="100"/>
</g>
<g transform="translate(186)">
	<polygon points="0,0 2,0 2,0 	"/>
</g>
<g transform="translate(188)">
	<rect x="15.3" width="2" height="100"/>
</g>
<g class="st0">
	<path d="M17.5,90.2c2.6,1.1,4.6,1.9,4.6,5.2c0,3.1-2,5.1-5.2,5.1c-3.3,0-5-2.3-4.9-5.5h1.5c0,2.3,0.9,4.1,3.4,4.1
		c2.2,0,3.6-1.4,3.6-3.6c0-2.7-2-3.1-4-4c-2.4-1-4.2-2-4.2-4.9c0-2.9,1.8-5,4.7-5c2.8,0,4.7,1.9,4.6,4.8h-1.5c0.1-2-1.1-3.4-3.1-3.4
		c-2,0-3.1,1.5-3.1,3.5c0,1.8,0.6,2.5,2.2,3.2L17.5,90.2z"/>
	<path d="M23.5,83.4V82h9.7v1.4h-4.1V100h-1.6V83.4H23.5z"/>
	<path d="M35,90.5c0-3.7,0.5-8.9,5.3-8.9c5.3,0,5.3,5.9,5.3,9.8c0,3.9-0.3,9-5.4,9C35.1,100.4,35,94.3,35,90.5z M44.1,91
		c0-2.6,0-8.1-3.8-8.1c-3.6,0-3.6,5.3-3.6,7.9c0,2.8-0.1,8.2,3.8,8.2C44.2,99,44.1,93.6,44.1,91z"/>
	<path d="M50.1,91.5v8.5h-1.6V82H52c3.3,0,5.5,1,5.5,4.6c0,1.8-0.7,3.8-2.6,4.2v0c2.1,0.5,2.4,2.1,2.4,4.4c0,0.9-0.1,4,0.8,4.5v0.2
		h-1.7c-0.7-1.5-0.6-4.6-0.7-5.9c-0.2-2.4-2-2.6-4-2.6H50.1z M50.1,90.1h2.7c0.5,0,3.2-0.2,3.2-3.4c0-2.6-1.2-3.3-3.6-3.3h-2.3V90.1
		z"/>
	<path d="M60.6,100V82h8.2v1.4h-6.6v6.5h6v1.4h-6v7.3h6.7v1.4H60.6z"/>
</g>
<g class="st0">
	<path d="M87.2,95.7c0.1,1.7,0.7,3.3,2.7,3.3c2.5,0,3.1-2.5,3.1-4.8c0-2.3-0.6-4.4-3.1-4.4c-1.1,0-2,0.7-2.5,1.7h-1.3l1-9h6.7v1.5
		h-5.4l-0.7,5.4l0,0c0.6-0.7,1.7-0.9,2.4-0.9c3.3,0,4.3,2.9,4.3,5.8c0,3.1-1.2,6.1-4.7,6.1c-3,0-4.2-1.9-4.2-4.6H87.2z"/>
	<path d="M96.1,83.4V82h9.7v1.4h-4.1V100h-1.6V83.4H96.1z"/>
	<path d="M111.7,82.1c4.7,0,4.4,6.8,4.4,9.4c0,4.3-0.4,8.8-4.5,8.8c-3.9,0-4.4-4.3-4.4-9.2C107.2,83.5,109.3,82.1,111.7,82.1z
		 M111.5,99c1,0,3,0,3-7.6c0-4.6-0.2-8-3-8c-2,0-2.7,2-2.7,8.1C108.8,97.1,109.5,99,111.5,99z"/>
	<path d="M120,91.5v8.5h-1.6V82h3.5c3.3,0,5.5,1,5.5,4.6c0,1.8-0.7,3.8-2.6,4.2v0c2.1,0.5,2.4,2.1,2.4,4.4c0,0.9-0.1,4,0.8,4.5v0.2
		h-1.7c-0.7-1.5-0.6-4.6-0.7-5.9c-0.2-2.4-2-2.6-4-2.6H120z M120,90.1h2.7c0.5,0,3.2-0.2,3.2-3.4c0-2.6-1.2-3.3-3.6-3.3H120V90.1z"
		/>
	<path d="M132.5,91.5v-1.3h0.5c2.4,0,3.6-1.2,3.6-3.6c0-1.6-0.6-3.2-2.5-3.2c-2,0-2.4,1.9-2.6,3.5h-1.4c0-2.4,1.1-4.8,3.9-4.8
		c2.8,0,4.2,2,4.2,4.6c0,0.7-0.2,3-2.6,4v0c2.5,0.6,3.1,2.7,3.1,4.5c0,4.9-3.7,5-4.5,5c-0.3,0-4.5,0.2-4.4-5h1.5
		c0,1.9,0.6,3.7,2.9,3.7c2.2,0,3-1.9,3-3.8c0-1.3-0.5-3.6-3.5-3.7H132.5z"/>
	<path d="M150.4,82.1c4.7,0,4.4,6.8,4.4,9.4c0,4.3-0.4,8.8-4.5,8.8c-3.9,0-4.4-4.3-4.4-9.2C145.8,83.5,148,82.1,150.4,82.1z
		 M150.2,99c1,0,3,0,3-7.6c0-4.6-0.2-8-3-8c-2,0-2.7,2-2.7,8.1C147.4,97.1,148.2,99,150.2,99z"/>
	<path d="M161,82.1c4.7,0,4.4,6.8,4.4,9.4c0,4.3-0.4,8.8-4.5,8.8c-3.9,0-4.4-4.3-4.4-9.2C156.5,83.5,158.6,82.1,161,82.1z M160.8,99
		c1,0,3,0,3-7.6c0-4.6-0.2-8-3-8c-2,0-2.7,2-2.7,8.1C158.1,97.1,158.8,99,160.8,99z"/>
	<path d="M171.7,82.1c4.7,0,4.4,6.8,4.4,9.4c0,4.3-0.4,8.8-4.5,8.8c-3.9,0-4.4-4.3-4.4-9.2C167.2,83.5,169.3,82.1,171.7,82.1z
		 M171.5,99c1,0,3,0,3-7.6c0-4.6-0.2-8-3-8c-2,0-2.7,2-2.7,8.1C168.7,97.1,169.5,99,171.5,99z"/>
	<path d="M182.3,82.1c4.7,0,4.4,6.8,4.4,9.4c0,4.3-0.4,8.8-4.5,8.8c-3.9,0-4.4-4.3-4.4-9.2C177.8,83.5,179.9,82.1,182.3,82.1z
		 M182.1,99c1,0,3,0,3-7.6c0-4.6-0.2-8-3-8c-2,0-2.7,2-2.7,8.1C179.4,97.1,180.1,99,182.1,99z"/>
	<path d="M193,82.1c4.7,0,4.4,6.8,4.4,9.4c0,4.3-0.4,8.8-4.5,8.8c-3.9,0-4.4-4.3-4.4-9.2C188.5,83.5,190.6,82.1,193,82.1z M192.8,99
		c1,0,3,0,3-7.6c0-4.6-0.2-8-3-8c-2,0-2.7,2-2.7,8.1C190,97.1,190.8,99,192.8,99z"/>
</g>
<g transform="translate(110)">
	<rect x="56" width="2" height="80"/>
</g>
<g transform="translate(114)">
	<rect x="56" width="2" height="80"/>
</g>
<g transform="translate(116)">
	<rect x="56" width="2" height="80"/>
</g>
<g transform="translate(122)">
	<rect x="56" width="2" height="80"/>
</g>
<g transform="translate(124)">
	<rect x="56" width="2" height="80"/>
</g>
<g transform="translate(128)">
	<rect x="56" width="2" height="80"/>
</g>
<g transform="translate(130)">
	<rect x="56" width="2" height="80"/>
</g>
<g transform="translate(132)">
	<rect x="56" width="2" height="80"/>
</g>
<g transform="translate(136)">
	<rect x="56" width="2" height="80"/>
</g>
<g transform="translate(128)">
	<rect x="32" width="2" height="80"/>
</g>
<g transform="translate(130)">
	<rect x="32" width="2" height="80"/>
</g>
<g transform="translate(128)">
	<rect x="17" width="2" height="80"/>
</g>
<g transform="translate(130)">
	<rect x="17" width="2" height="80"/>
</g>
</svg>
